<?xml version="1.0" encoding="iso-8859-1"?>
<!-- Generator: Adobe Illustrator 19.0.0, SVG Export Plug-In . SVG Version: 6.00 Build 0)  -->
<svg version="1.1" id="Capa_1" xmlns="http://www.w3.org/2000/svg" xmlns:xlink="http://www.w3.org/1999/xlink" x="0px" y="0px"
	 viewBox="0 0 512 512" style="enable-background:new 0 0 512 512;" xml:space="preserve">
<g>
	<g>
		<circle cx="135" cy="377" r="15"/>
	</g>
</g>
<g>
	<g>
		<path d="M105,242c-24.814,0-45,20.186-45,45c0,24.814,20.186,45,45,45c24.814,0,45-20.186,45-45C150,262.186,129.814,242,105,242z
			"/>
	</g>
</g>
<g>
	<g>
		<path d="M75,392H60v-15c0-8.291-6.709-15-15-15s-15,6.709-15,15v15H15c-8.291,0-15,6.709-15,15c0,8.291,6.709,15,15,15h15v15
			c0,8.291,6.709,15,15,15s15-6.709,15-15v-15h15c8.291,0,15-6.709,15-15C90,398.709,83.291,392,75,392z"/>
	</g>
</g>
<g>
	<g>
		<path d="M301,362v92.578c0,20.224-5.832,39.924-15.667,57.422h83.655C382.85,496.16,391,475.688,391,454.578V362H301z"/>
	</g>
</g>
<g>
	<g>
		<path d="M467,272H225c-24.814,0-45,20.186-45,45v15h332v-15C512,292.186,491.814,272,467,272z"/>
	</g>
</g>
<g>
	<g>
		<path d="M180,362v62.578c0,23.013-9.331,45.542-25.605,61.816c-4.292,4.292-5.581,10.737-3.252,16.348
			c2.314,5.61,7.793,9.258,13.857,9.258h83.989C262.85,496.16,271,475.688,271,454.578V362H180z"/>
	</g>
</g>
<g>
	<g>
		<path d="M421,362v92.578c0,20.224-5.832,39.924-15.667,57.422H436c41.353,0,76-33.647,76-75v-75H421z"/>
	</g>
</g>
<g>
	<g>
		<rect x="316" y="181" width="60" height="61"/>
	</g>
</g>
<g>
	<g>
		<path d="M346,0c-16.569,0-30,13.431-30,30v121h60V30C376,13.431,362.569,0,346,0z"/>
	</g>
</g>
<g>
</g>
<g>
</g>
<g>
</g>
<g>
</g>
<g>
</g>
<g>
</g>
<g>
</g>
<g>
</g>
<g>
</g>
<g>
</g>
<g>
</g>
<g>
</g>
<g>
</g>
<g>
</g>
<g>
</g>
</svg>
