<svg height="512pt" viewBox="-48 0 512 512" width="512pt" xmlns="http://www.w3.org/2000/svg"><path d="m401.917969 185.136719h-34.164063l1.199219-20.433594h-320.625l1.203125 20.433594h-34.53125c-8.285156 0-15 6.714843-15 15 0 8.285156 6.714844 15 15 15h36.296875l16.632813 282.746093c.464843 7.925782 7.03125 14.117188 14.972656 14.117188h251.480468c7.941407 0 14.507813-6.191406 14.972657-14.117188l16.632812-282.746093h35.929688c8.285156 0 15-6.714844 15-15 0-8.285157-6.714844-15-15-15zm-262.636719 265.847656c-.21875.011719-.433594.015625-.648438.015625-7.992187 0-14.632812-6.300781-14.976562-14.363281l-10-235c-.351562-8.273438 6.070312-15.269531 14.347656-15.621094 8.296875-.378906 15.273438 6.070313 15.625 14.347656l10 235c.351563 8.277344-6.070312 15.269531-14.347656 15.621094zm84.359375-14.984375c0 8.285156-6.714844 15-15 15-8.28125 0-15-6.714844-15-15v-235c0-8.285156 6.71875-15 15-15 8.285156 0 15 6.714844 15 15zm69.988281.636719c-.34375 8.0625-6.984375 14.363281-14.976562 14.363281-.214844 0-.429688-.003906-.648438-.015625-8.277344-.351563-14.699218-7.347656-14.347656-15.621094l10-235c.351562-8.277343 7.367188-14.734375 15.625-14.351562 8.277344.351562 14.699219 7.347656 14.347656 15.625zm0 0"/><path d="m30.75 134.703125h355.78125c5.523438 0 10-4.476563 10-10v-17.867187c0-24.855469-20.144531-45-45-45h-49.828125v-6.835938c0-30.375-24.621094-55-55-55h-76.125c-30.375 0-55 24.625-55 55v6.832031h-49.828125c-24.851562 0-45 20.148438-45 45v17.871094c0 5.523437 4.476562 10 10 10zm114.828125-79.703125c0-13.785156 11.214844-25 25-25h76.125c13.785156 0 25 11.214844 25 25v6.832031h-126.125zm0 0"/></svg>