<svg height="448pt" viewBox="-1 0 448 448" width="448pt" xmlns="http://www.w3.org/2000/svg"><path d="m0 96v304.449219l32-108.800781v-195.648438zm0 0"/><path d="m445.3125 192h-367.328125l-75.289063 256h367.320313zm0 0"/><path d="m48 0v237.246094l16.328125-55.503906c1-3.402344 4.125-5.742188 7.671875-5.742188h248v-96h-72c-4.417969 0-8-3.582031-8-8v-72zm24 32h128c4.417969 0 8 3.582031 8 8s-3.582031 8-8 8h-128c-4.417969 0-8-3.582031-8-8s3.582031-8 8-8zm0 48h144c4.417969 0 8 3.582031 8 8s-3.582031 8-8 8h-144c-4.417969 0-8-3.582031-8-8s3.582031-8 8-8zm208 48c4.417969 0 8 3.582031 8 8s-3.582031 8-8 8h-208c-4.417969 0-8-3.582031-8-8s3.582031-8 8-8zm0 0"/><path d="m336 144h32v32h-32zm0 0"/><path d="m256 64h52.6875l-52.6875-52.6875zm0 0"/></svg>